<?xml version="1.0" encoding="utf-8"?>
<!-- Generator: Adobe Illustrator 27.2.0, SVG Export Plug-In . SVG Version: 6.00 Build 0)  -->
<svg version="1.0" id="Livello_1" xmlns="http://www.w3.org/2000/svg" xmlns:xlink="http://www.w3.org/1999/xlink" x="0px" y="0px"
	 viewBox="0 0 700 700" style="enable-background:new 0 0 700 700;" xml:space="preserve">
<path d="M124.3,32.9c-25.3,0-42.8,22.2-42.3,44.7v322.6c0,2.4,0.9,4.6,2.6,6.3c1.6,1.7,3.9,2.6,6.2,2.6h21.7h0.1c0.2,0,0.3,0,0.5,0
	c0.1,0,0.3,0,0.4,0c0.1,0,0.2,0,0.3,0c0.2,0,0.4-0.1,0.6-0.1c0,0,0,0,0,0l0.1,0c0.2-0.1,0.5-0.1,0.7-0.2c0.1,0,0.2-0.1,0.2-0.1
	c0.2-0.1,0.4-0.2,0.6-0.3c0,0,0,0,0,0c0,0,0.1,0,0.1-0.1c0.2-0.1,0.4-0.2,0.7-0.3c0,0,0,0,0,0c0,0,0.1,0,0.1-0.1
	c0.2-0.1,0.4-0.2,0.6-0.4c0,0,0,0,0.1-0.1c0.1,0,0.1-0.1,0.2-0.1c0.2-0.1,0.3-0.2,0.5-0.4c0,0,0,0,0,0c0,0,0.1-0.1,0.1-0.1
	l84.7-78.9h300.3l84.8,78.9v0c0.2,0.1,0.3,0.3,0.5,0.4c0.2,0.2,0.4,0.3,0.6,0.5c0,0,0.1,0.1,0.1,0.1c0.2,0.1,0.4,0.2,0.6,0.4
	c0,0,0.1,0,0.1,0.1c0.2,0.1,0.5,0.2,0.8,0.3s0.5,0.2,0.8,0.3c0,0,0,0,0,0h0c0.3,0.1,0.6,0.1,0.8,0.2c0.7,0.1,1.3,0.2,2,0.1h21.2
	c2.3,0,4.6-0.9,6.2-2.6s2.6-3.9,2.6-6.3V77.4l0,0.2c0.5-22.6-17-44.7-42.3-44.7L124.3,32.9z M148.6,73.2h409.2
	c-12,6.1-22,14-29.9,23.4c-14.2,16.9-22.1,38.1-26.4,61.5c-8.2,44.5-4.1,98.1-3.7,152l-289.4,0c0.4-53.9,4.5-107.5-3.7-152
	c-4.3-23.5-12.2-44.7-26.4-61.6C170.5,87.2,160.5,79.3,148.6,73.2L148.6,73.2z M123.1,83.2c18.3,5.5,32.4,13.5,42,24.9
	c11.6,13.7,18.5,31.7,22.4,53.2c7.7,42.1,3.6,97.2,3.4,153.7l-69.7,64.8L123.1,83.2z M583.2,83.2l1.8,296.6l-69.7-64.8
	c-0.2-56.5-4.3-111.6,3.4-153.7c3.9-21.6,10.9-39.5,22.4-53.2C550.8,96.7,565,88.7,583.2,83.2L583.2,83.2z"/>
<path d="M352,666.2c-14.8,0-28.9-2.8-42.1-8.5s-24.7-13.4-34.6-23.2c-9.9-9.8-17.6-21.3-23.3-34.4c-5.7-13.1-8.5-27.1-8.5-41.8
	c0-14.9,2.8-28.9,8.5-41.9c5.7-13,13.5-24.5,23.3-34.3c9.9-9.8,21.4-17.5,34.6-23.2s27.2-8.5,42.1-8.5c15,0,29.1,2.8,42.2,8.5
	c13.1,5.7,24.6,13.4,34.5,23.2c9.9,9.8,17.6,21.2,23.3,34.3s8.5,27,8.5,41.9c0,14.7-2.8,28.7-8.5,41.8s-13.5,24.6-23.3,34.4
	c-9.9,9.8-21.3,17.5-34.5,23.2C381.1,663.4,367,666.2,352,666.2z M407.6,533.2l18.7-6.5l4.9-17.3c-6.2-9.5-13.7-17.7-22.8-24.4
	c-9-6.7-19.3-11.9-30.7-15.5l-17.6,11.6V500L407.6,533.2z M296.7,533.2l47.2-33.2v-18.9l-17.4-11.6c-11.4,3.6-21.6,8.8-30.7,15.5
	c-9,6.7-16.6,14.9-22.8,24.4l6,17.3L296.7,533.2z M282,619.5l16.3-1.9l10.6-17.5l-16.8-51.5l-19.3-6.5l-13,10.5
	c0,12.9,1.4,24.8,4.3,35.5C267,598.8,273,609.3,282,619.5z M352,650c4.9,0,9.8-0.4,14.8-1.3c5-0.9,10.2-2.1,15.6-3.5l9-19.4
	l-8.7-14.8h-61l-8.7,14.8l9,19.4c4.7,1.4,9.7,2.6,14.9,3.5C342.1,649.6,347.1,650,352,650z M323.3,594.7h56.4l16.6-49.4L352,513.8
	l-45,31.6L323.3,594.7z M422.3,619.5c8.9-10.3,14.7-20.7,17.6-31.4c2.9-10.7,4.3-22.5,4.3-35.5l-13-8.9l-19,4.9l-16.8,51.5
	l10.3,17.5L422.3,619.5z"/>
<ellipse cx="350.4" cy="678.4" rx="117" ry="4.2"/>
</svg>
